<svg id="svg" version="1.1" xmlns="http://www.w3.org/2000/svg" xmlns:xlink="http://www.w3.org/1999/xlink" width="400" height="287.6254180602007" viewBox="0, 0, 400,287.6254180602007"><g id="svgg"><path id="path0" d="M34.649 45.446 C 30.380 46.644,26.150 50.147,24.546 53.813 C 24.373 54.209,24.024 55.005,23.770 55.583 C 23.517 56.161,23.309 56.899,23.309 57.223 C 23.309 57.548,23.114 57.922,22.876 58.056 C 22.491 58.271,22.450 70.231,22.516 165.336 L 22.590 272.374 23.274 273.566 C 24.701 276.052,26.814 277.800,29.242 278.505 C 30.959 279.003,369.031 279.005,370.758 278.507 C 373.493 277.718,375.753 275.742,376.958 273.085 C 377.582 271.708,377.929 57.842,377.307 57.842 C 377.171 57.842,376.779 56.968,376.436 55.899 C 374.675 50.416,371.333 47.110,365.985 45.561 L 363.676 44.892 200.039 44.923 C 46.607 44.953,36.294 44.985,34.649 45.446 M361.099 241.688 C 361.337 241.839,361.444 242.348,361.387 243.051 L 361.295 244.173 200.000 244.173 L 38.705 244.173 38.613 243.219 C 38.563 242.694,38.676 242.079,38.865 241.852 C 39.254 241.382,360.359 241.219,361.099 241.688 M361.387 251.458 C 361.437 251.982,361.324 252.597,361.135 252.825 C 360.667 253.389,39.470 253.456,38.906 252.892 C 38.539 252.525,38.431 250.873,38.753 250.551 C 38.859 250.446,111.474 250.392,200.120 250.431 L 361.295 250.504 361.387 251.458 M361.295 260.432 L 361.295 261.727 200.077 261.799 L 38.860 261.871 38.679 261.151 C 38.580 260.756,38.580 260.108,38.679 259.712 L 38.860 258.992 200.077 259.064 L 361.295 259.137 361.295 260.432 " stroke="none" fill="#babcbf" fill-rule="evenodd"></path><path id="path1" d="M33.381 0.252 C 32.403 0.509,29.807 1.789,29.688 2.073 C 29.635 2.199,29.441 2.306,29.257 2.310 C 28.895 2.318,26.475 4.438,26.475 4.746 C 26.475 5.047,25.681 5.755,25.344 5.755 C 25.175 5.755,25.036 6.014,25.036 6.331 C 25.036 6.647,24.906 6.906,24.748 6.906 C 24.590 6.906,24.460 7.101,24.460 7.338 C 24.460 7.576,24.331 7.770,24.173 7.770 C 24.014 7.770,23.885 8.223,23.885 8.777 C 23.885 9.444,23.750 9.784,23.486 9.784 C 23.266 9.784,22.985 10.205,22.861 10.719 C 22.450 12.414,22.387 58.197,22.795 58.061 C 22.991 57.996,23.238 57.515,23.345 56.992 C 23.452 56.469,23.682 55.734,23.856 55.359 C 24.030 54.983,24.328 54.320,24.517 53.885 C 25.679 51.211,28.879 47.978,31.799 46.528 C 35.373 44.751,20.862 44.892,200.278 44.892 L 363.676 44.892 365.985 45.561 C 371.333 47.110,374.675 50.416,376.436 55.899 C 376.779 56.968,377.171 57.842,377.307 57.842 C 377.443 57.842,377.554 53.504,377.554 48.201 C 377.554 41.966,377.452 38.561,377.266 38.561 C 377.108 38.561,376.978 38.117,376.978 37.575 C 376.978 37.032,376.784 36.394,376.547 36.156 C 376.309 35.919,376.115 35.545,376.115 35.327 C 376.115 35.108,375.856 34.651,375.540 34.311 C 375.223 33.971,374.964 33.520,374.964 33.309 C 374.964 32.905,372.856 30.504,372.502 30.504 C 372.389 30.504,372.014 30.212,371.670 29.856 C 370.899 29.059,369.935 28.489,369.356 28.489 C 369.117 28.489,368.921 28.360,368.921 28.201 C 368.921 28.043,368.613 27.914,368.237 27.914 C 367.860 27.914,367.391 27.719,367.194 27.482 C 366.967 27.208,366.331 27.050,365.449 27.050 C 364.687 27.050,363.983 26.921,363.885 26.763 C 363.767 26.572,328.486 26.475,258.976 26.475 C 189.347 26.475,154.245 26.378,154.245 26.187 C 154.245 26.029,153.921 25.899,153.525 25.899 C 153.035 25.899,152.803 25.739,152.797 25.396 C 152.785 24.774,152.137 23.885,151.695 23.885 C 151.515 23.885,151.367 23.719,151.367 23.517 C 151.367 23.314,151.108 22.962,150.791 22.734 C 150.475 22.506,150.216 22.180,150.216 22.011 C 150.216 21.841,149.763 21.222,149.209 20.635 C 148.655 20.048,148.201 19.497,148.201 19.412 C 148.201 19.262,147.884 18.845,147.122 17.996 C 146.924 17.776,146.763 17.515,146.763 17.418 C 146.763 17.120,145.370 15.827,145.049 15.827 C 144.884 15.827,144.748 15.564,144.748 15.241 C 144.748 14.919,144.165 14.088,143.453 13.396 C 142.741 12.704,142.158 11.980,142.158 11.786 C 142.158 11.593,141.705 11.007,141.151 10.485 C 140.597 9.963,140.144 9.416,140.144 9.270 C 140.144 9.124,139.820 8.656,139.424 8.229 C 139.029 7.802,138.705 7.322,138.705 7.162 C 138.705 7.003,138.576 6.953,138.417 7.050 C 138.259 7.148,138.129 7.092,138.129 6.926 C 138.129 6.652,137.419 5.709,136.475 4.730 C 136.277 4.525,136.115 4.219,136.115 4.049 C 136.115 3.880,135.932 3.741,135.708 3.741 C 135.484 3.741,134.834 3.288,134.264 2.734 C 133.694 2.180,132.970 1.727,132.657 1.727 C 132.343 1.727,132.086 1.597,132.086 1.439 C 132.086 1.281,131.870 1.151,131.605 1.151 C 131.341 1.151,130.874 0.924,130.568 0.647 C 129.996 0.130,35.313 -0.256,33.381 0.252 M38.865 241.852 C 38.676 242.079,38.563 242.694,38.613 243.219 L 38.705 244.173 200.000 244.173 L 361.295 244.173 361.387 243.051 C 361.444 242.348,361.337 241.839,361.099 241.688 C 360.359 241.219,39.254 241.382,38.865 241.852 M38.753 250.551 C 38.431 250.873,38.539 252.525,38.906 252.892 C 39.470 253.456,360.667 253.389,361.135 252.825 C 361.324 252.597,361.437 251.982,361.387 251.458 L 361.295 250.504 200.120 250.431 C 111.474 250.392,38.859 250.446,38.753 250.551 M38.679 259.712 C 38.580 260.108,38.580 260.756,38.679 261.151 L 38.860 261.871 200.077 261.799 L 361.295 261.727 361.295 260.432 L 361.295 259.137 200.077 259.064 L 38.860 258.992 38.679 259.712 M22.485 271.959 C 22.464 272.364,22.636 272.947,22.869 273.254 C 23.101 273.562,23.295 273.677,23.300 273.511 C 23.305 273.345,23.191 273.086,23.046 272.935 C 22.901 272.785,22.724 272.338,22.653 271.942 L 22.524 271.223 22.485 271.959 M377.038 272.894 C 376.454 274.508,375.025 276.245,373.503 277.191 C 372.721 277.677,372.137 278.132,372.207 278.202 C 372.958 278.953,377.880 273.353,377.492 272.188 C 377.440 272.031,377.235 272.348,377.038 272.894 M23.318 274.140 C 23.304 274.647,25.933 277.287,26.978 277.815 C 27.493 278.075,27.914 278.223,27.914 278.144 C 27.914 278.065,27.527 277.801,27.055 277.557 C 26.090 277.057,24.913 275.961,23.965 274.676 C 23.614 274.201,23.323 273.960,23.318 274.140 M28.633 278.561 C 28.950 278.697,29.403 278.808,29.640 278.808 C 29.912 278.808,29.859 278.717,29.496 278.561 C 29.180 278.425,28.727 278.314,28.489 278.314 C 28.217 278.314,28.270 278.405,28.633 278.561 M370.504 278.561 C 370.141 278.717,370.088 278.808,370.360 278.808 C 370.597 278.808,371.050 278.697,371.367 278.561 C 371.730 278.405,371.783 278.314,371.511 278.314 C 371.273 278.314,370.820 278.425,370.504 278.561 " stroke="none" fill="#747677" fill-rule="evenodd"></path></g></svg>